<?xml version="1.0" encoding="UTF-8" standalone="no"?>
<!-- Created with Inkscape (http://www.inkscape.org/) -->

<svg
   xmlns:dc="http://purl.org/dc/elements/1.1/"
   xmlns:cc="http://creativecommons.org/ns#"
   xmlns:rdf="http://www.w3.org/1999/02/22-rdf-syntax-ns#"
   xmlns:svg="http://www.w3.org/2000/svg"
   xmlns="http://www.w3.org/2000/svg"
   xmlns:sodipodi="http://sodipodi.sourceforge.net/DTD/sodipodi-0.dtd"
   xmlns:inkscape="http://www.inkscape.org/namespaces/inkscape"
   width="1052.3622"
   height="744.09448"
   id="svg3753"
   version="1.1"
   inkscape:version="0.92.3 (2405546, 2018-03-11)"
   sodipodi:docname="Dom Sketch.svg">
  <defs
     id="defs3" />
  <sodipodi:namedview
     inkscape:document-units="mm"
     id="base"
     pagecolor="#ffffff"
     bordercolor="#666666"
     borderopacity="1.0"
     inkscape:pageopacity="0.0"
     inkscape:pageshadow="2"
     inkscape:zoom="5.6"
     inkscape:cx="80.479594"
     inkscape:cy="691.68811"
     inkscape:current-layer="g3010"
     showgrid="false"
     units="mm"
     inkscape:window-width="1737"
     inkscape:window-height="921"
     inkscape:window-x="125"
     inkscape:window-y="27"
     inkscape:window-maximized="0" />
  <metadata
     id="metadata4">
    <rdf:RDF>
      <cc:Work
         rdf:about="">
        <dc:format>image/svg+xml</dc:format>
        <dc:type
           rdf:resource="http://purl.org/dc/dcmitype/StillImage" />
        <dc:title></dc:title>
      </cc:Work>
    </rdf:RDF>
  </metadata>
  <g
     inkscape:label="Layer 1"
     inkscape:groupmode="layer"
     id="layer1"
     transform="translate(0,-308.2677)">
    <path
       style="fill:none;stroke:#ff0000;stroke-width:1.75052691;stroke-linecap:butt;stroke-linejoin:miter;stroke-miterlimit:4;stroke-dasharray:none;stroke-opacity:1"
       d="m 21.250536,325.73601 37.844962,-0.24422 0.453232,-16.85153 32.859398,0.48846 v 16.85151 l 21.755192,0.24423 -0.22663,4.15182"
       id="S"
       inkscape:connector-curvature="0"
       inkscape:label="#path3792" />
    <path
       inkscape:connector-curvature="0"
       id="N"
       d="m 20.570687,376.53479 37.844964,0.24423 0.453231,16.85151 32.859398,-0.48845 v -16.85152 l 21.75518,-0.24422 -0.22661,-4.15182"
       style="fill:none;stroke:#ff0000;stroke-width:1.75052691;stroke-linecap:butt;stroke-linejoin:miter;stroke-miterlimit:4;stroke-dasharray:none;stroke-opacity:1"
       inkscape:label="#path4562" />
    <g
       id="W1"
       inkscape:label="#g3115"
       transform="matrix(0.28658823,0,0,0.29876846,0.17909692,216.7064)">
      <path
         sodipodi:nodetypes="cccc"
         inkscape:connector-curvature="0"
         id="path4564"
         d="m 398.42231,378.15884 c 2.7138,-4.00521 5.3118,-6.83986 10.06446,-8.95925 3.94223,-1.78948 9.1665,-1.5559 12.86016,1.15603 4.26701,2.76453 7.69242,9.50806 9.7849,13.29438"
         style="fill:none;stroke:#000000;stroke-width:5.98235655;stroke-linecap:butt;stroke-linejoin:miter;stroke-miterlimit:4;stroke-dasharray:none;stroke-opacity:1" />
      <path
         style="fill:none;stroke:#000000;stroke-width:5.98235655;stroke-linecap:butt;stroke-linejoin:miter;stroke-miterlimit:4;stroke-dasharray:none;stroke-opacity:1"
         d="m 431.54152,382.36527 c 4.15277,-2.34145 9.93519,-3.97646 15.10387,-3.69193 4.30084,0.2078 8.88059,2.81687 11.02385,6.94309 2.63429,4.4367 3.26409,11.44929 3.51111,15.80248"
         id="path4566"
         inkscape:connector-curvature="0"
         sodipodi:nodetypes="cccc" />
      <path
         sodipodi:nodetypes="cccc"
         inkscape:connector-curvature="0"
         id="path4568"
         d="m 460.82173,402.0974 c 4.71375,-0.40867 10.99957,-0.44897 15.61703,1.96881 3.85347,1.98534 7.02421,6.28393 7.37332,10.95344 0.67705,5.15853 -0.93993,12.48872 -2.41427,16.57436"
         style="fill:none;stroke:#000000;stroke-width:5.98235655;stroke-linecap:butt;stroke-linejoin:miter;stroke-miterlimit:4;stroke-dasharray:none;stroke-opacity:1" />
      <path
         style="fill:none;stroke:#000000;stroke-width:5.98235655;stroke-linecap:butt;stroke-linejoin:miter;stroke-miterlimit:4;stroke-dasharray:none;stroke-opacity:1"
         d="m 480.46422,432.17751 c 4.0751,2.48301 10.08754,6.38344 12.50376,11.11542 2.03457,3.92261 2.21862,9.32498 -0.10728,13.34409 -2.33171,4.61412 -9.20172,9.55962 -12.68918,12.01275"
         id="path4570"
         inkscape:connector-curvature="0"
         sodipodi:nodetypes="cccc" />
    </g>
    <g
       id="W2"
       inkscape:label="#g3121"
       transform="matrix(0.28658823,0,0,0.29876846,0.17909692,216.7064)">
      <path
         style="fill:none;stroke:#000000;stroke-width:5.98235655;stroke-linecap:butt;stroke-linejoin:miter;stroke-miterlimit:4;stroke-dasharray:none;stroke-opacity:1"
         d="m 395.62663,522.6999 c 2.7138,4.00521 5.3118,6.83986 10.06446,8.95926 3.94222,1.78947 9.16649,1.5559 12.86016,-1.15604 4.26701,-2.76452 7.69241,-9.50805 9.7849,-13.29438"
         id="path4578"
         inkscape:connector-curvature="0"
         sodipodi:nodetypes="cccc" />
      <path
         sodipodi:nodetypes="cccc"
         inkscape:connector-curvature="0"
         id="path4580"
         d="m 428.74583,518.49348 c 4.15278,2.34145 9.9352,3.97646 15.10388,3.69193 4.30083,-0.2078 8.88059,-2.81688 11.02385,-6.94309 2.63428,-4.4367 3.26409,-11.4493 3.5111,-15.80248"
         style="fill:none;stroke:#000000;stroke-width:5.98235655;stroke-linecap:butt;stroke-linejoin:miter;stroke-miterlimit:4;stroke-dasharray:none;stroke-opacity:1" />
      <path
         style="fill:none;stroke:#000000;stroke-width:5.98235655;stroke-linecap:butt;stroke-linejoin:miter;stroke-miterlimit:4;stroke-dasharray:none;stroke-opacity:1"
         d="m 458.02605,498.76135 c 4.71374,0.40866 10.99957,0.44897 15.61702,-1.96881 3.85348,-1.98534 7.02421,-6.28393 7.37333,-10.95345 0.67705,-5.15852 -0.93994,-12.48871 -2.41427,-16.57435"
         id="path4582"
         inkscape:connector-curvature="0"
         sodipodi:nodetypes="cccc" />
    </g>
    <path
       style="fill:none;stroke:#00ff00;stroke-width:1.75052691;stroke-linecap:butt;stroke-linejoin:miter;stroke-miterlimit:4;stroke-dasharray:none;stroke-opacity:1"
       d="m 21.930386,326.10234 -1.470008,1.8159 -3.164781,-0.12952 -2.003027,-2.41771 -3.765689,-0.0432 -1.9629661,2.80626 -1.562359,-2.84943 -3.9659928,0.0432 -0.7210883,2.28819 -1.8828457,0.38855 0.2403632,4.27417 2.2433903,1.94279 -1.9629661,3.19483 -0.040061,1.38154 2.1232074,4.66271 -2.32351,5.52618 0.080122,1.85646 0.9614518,0.43172"
       id="E1"
       inkscape:connector-curvature="0"
       inkscape:label="#path4586" />
    <path
       inkscape:connector-curvature="0"
       id="E2"
       d="m 22.043694,376.71146 -1.470007,-1.81588 -3.164781,0.12952 -2.003026,2.4177 -3.76569,0.0432 -1.962966,-2.80626 -1.5623591,2.84943 -3.965993,-0.0432 -0.7210885,-2.28818 -1.8828455,-0.38857 0.2403634,-4.27415 2.2433899,-1.9428 -1.9629658,-3.19481 -0.040061,-1.38156 2.1232074,-4.66271 -2.3235098,-5.52617 0.080122,-1.85645 0.9614514,-0.43173"
       style="fill:none;stroke:#00ff00;stroke-width:1.75052691;stroke-linecap:butt;stroke-linejoin:miter;stroke-miterlimit:4;stroke-dasharray:none;stroke-opacity:1"
       inkscape:label="#path4588" />
    <rect
       style="fill:none;stroke:#000000;stroke-width:1.08614659;stroke-miterlimit:4;stroke-dasharray:none;stroke-opacity:1"
       id="R1"
       width="56.450523"
       height="43.911282"
       x="5.5256023"
       y="328.62189"
       inkscape:label="#rect3126" />
    <rect
       style="fill:none;stroke:#000000;stroke-width:1.02935898;stroke-miterlimit:4;stroke-dasharray:none;stroke-opacity:1"
       id="R2"
       width="27.437899"
       height="79.82148"
       x="61.99662"
       y="311.30701"
       inkscape:label="#rect3896" />
    <rect
       style="fill:none;stroke:#000000;stroke-width:1.03682482;stroke-miterlimit:4;stroke-dasharray:none;stroke-opacity:1"
       id="R3"
       width="23.234116"
       height="41.507473"
       x="90.044983"
       y="329.87717"
       inkscape:label="#rect3900" />
    <rect
       style="fill:none;stroke:#000000;stroke-width:1.03682482;stroke-miterlimit:4;stroke-dasharray:none;stroke-opacity:1"
       id="R4"
       width="15.557648"
       height="36.812538"
       x="113.4838"
       y="332.33133"
       inkscape:label="#rect3902" />
    <rect
       style="fill:none;stroke:#000000;stroke-width:1.03682482;stroke-miterlimit:4;stroke-dasharray:none;stroke-opacity:1"
       id="R5"
       width="5.7317648"
       height="22.621042"
       x="129.65556"
       y="339.48041"
       inkscape:label="#rect3904" />
  </g>
  <g
     transform="translate(0,-308.2677)"
     id="g3010"
     inkscape:groupmode="layer"
     inkscape:label="Layer 1 Kopie">
    <rect
       y="309.05197"
       x="-0.35925776"
       height="85.718513"
       width="143.71852"
       id="rect3048"
       style="fill:none;stroke:#0000d5;stroke-width:0.28148448;stroke-miterlimit:4;stroke-dasharray:none;stroke-opacity:1"
       sodipodi:insensitive="true" />
    <rect
       style="fill:none;stroke:#3d2ae8;stroke-width:1.57322359;stroke-miterlimit:4;stroke-dasharray:none;stroke-opacity:1"
       id="Rect"
       width="7.8629403"
       height="10.720084"
       x="70.800667"
       y="364.23425"
       inkscape:label="#rect3023" />
    <rect
       style="opacity:0.725;fill:none;fill-opacity:0.30337123;stroke:#3d2ae8;stroke-width:2.64566922;stroke-linecap:round;stroke-linejoin:round;stroke-miterlimit:4;stroke-dasharray:none;stroke-opacity:1"
       id="Kreis"
       width="7.6785717"
       height="7.5000005"
       x="33.035713"
       y="343.61218"
       inkscape:label="#rect4557" />
  </g>
</svg>
